<?xml version="1.0" encoding="UTF-8"?><svg id="Livello_2" xmlns="http://www.w3.org/2000/svg" viewBox="0 0 1818.67 518.15"><g id="Livello_2-2"><rect x="0" y="96.82" width="1818.67" height="421.33" fill="none"/><path d="M274.84,255.15c-5.42,11.14-3.01,52.37-47.86,52.37-17.46,0-33.41-13.24-33.41-33.41s10.53-36.12,36.12-36.12c8.73,0,17.76,1.81,23.48,1.81,9.63,0,12.94-3.61,12.94-13.85,0-12.34-3.31-21.37-3.31-34.01,0-13.85,8.13-33.71,25.28-33.11l.3-.6c-1.2-1.5-3.91-2.11-6.62-2.11-12.94,0-21.97,15.05-27.99,32.81-6.32,18.66-10.23,38.53-29.8,38.53-21.97,0-31-26.19-31-56.29,0-45.15,24.68-74.35,78.26-74.35,49.97.3,88.79,33.11,88.79,107.15,0,51.17-8.13,103.54-46.96,103.54-30.4,0-31.3-40.03-37.32-52.37h-.9ZM267.92,188.63c0,19.56,27.09,24.38,27.09,40.33,0,10.23-14.75,15.65-33.41,15.65-11.44,0-22.27-2.41-31.91-2.41-13.85,0-18.96,4.82-18.96,8.73,0,4.51,4.52,6.32,15.35,6.32,14.45,0,31-6.62,49.06-6.62,16.25,0,27.99,5.42,43.04,5.42,21.37,0,37.62-15.95,37.62-49.36,0-42.44-38.23-66.82-91.5-66.82-43.64,0-67.12,12.34-67.12,26.19,0,9.63,11.44,15.35,28.9,15.35,19.87,0,27.39-9.33,34.92-17.76,6.02-6.62,13.54-11.44,21.37-11.44,8.43,0,12.94,3.91,12.34,9.93-18.36-3.91-26.79,13.85-26.79,26.49Z" fill="#1d1d1b"/><path d="M461.16,259.06c-3.91,14.45-5.12,29.8-2.11,44.25-4.82,2.41-13.24,4.21-24.08,4.21-37.62,0-52.98-23.18-52.98-77.96,0-46.65,14.45-73.74,44.85-73.74,24.98,0,35.82,18.36,35.82,38.83,0,33.11-22.88,36.42-46.35,39.13-13.24,1.5-26.49,4.82-26.49,11.44,0,10.84,18.36,19.26,41.84,19.26,10.53,0,20.17-1.2,28.59-6.02l.9.6ZM415.1,230.16c22.57-2.41,32.51-6.02,32.51-14.15,0-7.22-11.14-10.53-26.49-10.53-22.57,0-35.22,8.43-35.22,24.68,0,3.31.3,6.32.9,9.33,5.12-4.82,14.45-7.83,28.29-9.33Z" fill="#1d1d1b"/><path d="M567.11,216.92c-8.43-7.22-18.96-11.44-38.53-11.44-13.85,0-22.57,3.01-22.57,11.14,0,6.02,6.62,10.84,25.28,17.76,30.4,11.44,42.44,20.77,42.44,41.24,0,21.97-13.54,31.91-45.75,31.91s-46.05-10.23-46.05-29.5c0-9.93,6.02-21.07,16.86-24.38,1.5,6.92,11.74,11.14,29.5,11.14,15.05,0,22.57-2.71,22.57-9.33s-6.02-11.44-22.57-17.46c-28.29-10.53-43.34-19.87-43.34-46.35,0-22.58,11.74-35.82,30.7-35.82,22.27,0,30.4,20.47,22.88,46.05,12.04,1.5,9.93-9.33,9.03-20.47-.6-12.34.3-25.58,21.67-25.58,7.52,25.89-7.83,40.93-.9,60.5l-1.2.6Z" fill="#1d1d1b"/><path d="M652.89,303.91c-4.82,2.11-10.23,3.61-21.67,3.61-19.26,0-31.91-10.54-31.91-26.79,0-22.58,25.58-33.11,25.58-55.68,0-11.74-7.52-19.56-17.76-19.56-7.83,0-11.44,4.51-14.15,10.53l-1.2-.3c-3.61-21.07,15.35-37.62,14.75-58.09,2.41-1.2,4.52-1.81,7.83-1.81,13.24,0,23.48,12.34,23.48,33.41,0,24.38-12.64,44.25-12.64,60.2,0,10.53,7.52,14.75,14.45,14.75,4.51,0,9.33-.9,13.24-4.82l1.2.3c-3.61,15.05-3.91,31-1.2,44.25ZM621.89,106.76c18.96,0,25.89,5.42,25.89,14.45,0,9.63-18.06,17.76-25.89,17.76s-25.58-8.43-25.58-17.76,6.92-14.45,25.58-14.45Z" fill="#1d1d1b"/><path d="M689.91,304.81c-12.04-4.51-16.55-13.54-16.55-24.98,0-15.95,12.64-26.49,27.69-30.1v-1.2c-11.44-2.41-27.69-10.23-27.69-35.52,0-32.81,13.85-58.39,43.34-58.39,22.88,0,34.92,18.66,40.63,42.14h1.81c-2.11-11.14-4.51-20.47-4.51-28.89s2.71-13.24,8.13-13.24c9.93,0,16.25,14.15,16.25,32.81,0,7.22-.9,15.05-3.01,23.18h-.9c-1.51-8.43-4.51-12.04-9.03-12.04-3.61,0-6.92,4.21-6.02,18.96,1.2,21.67-16.55,33.41-43.64,33.41-14.45,0-29.8,5.72-29.8,13.54,0,4.21,3.01,5.72,12.94,5.72,4.51,0,10.53-.3,18.36-.9,31-2.11,59.9-.6,59.9,39.73,0,37.32-15.35,58.69-55.08,58.69-36.12,0-49.97-14.45-49.97-35.82,0-14.45,5.42-23.78,17.16-26.49v-.6ZM748.91,339.12c18.36,0,23.78-8.13,23.78-16.86,0-12.34-17.16-16.25-36.72-16.25-13.24,0-21.97,1.5-36.12,1.5-10.53,0-18.06,4.21-18.06,9.63,0,11.44,31.6,21.97,67.12,21.97ZM716.7,246.72c18.36,0,34.31-6.92,34.31-17.76,0-15.35-15.05-23.48-34.31-23.48s-34.61,7.83-34.61,22.57c0,13.85,21.37,18.66,34.61,18.66Z" fill="#1d1d1b"/><path d="M797.97,215.72c-5.42-21.97,14.45-37.32,14.45-57.49,1.51-1.5,4.21-2.41,6.62-2.41,8.13,0,15.65,15.05,11.14,60.8h1.5c8.13-37.32,21.97-60.8,42.14-60.8,15.95,0,25.58,12.34,25.58,32.51,0,33.11-19.87,51.77-19.87,65.32,0,6.92,4.51,10.54,9.63,10.54,3.61,0,6.32-1.2,9.93-4.82l1.2.3c-3.91,15.05-5.12,30.7-2.41,44.25-2.41,1.5-7.22,3.61-17.76,3.61-22.57,0-30.1-15.65-30.1-28.29,0-15.65,10.84-23.48,21.67-33.11,9.33-8.43,13.54-14.45,13.54-24.38s-9.33-16.25-22.57-16.25c-17.16,0-31.6,7.83-31.6,30.1,0,28.9,6.92,52.37,12.64,69.83-4.21-.6-11.14-.6-17.76-.6s-12.64,0-15.95.6c-3.61-29.2,17.16-48.46,17.16-77.66,0-13.54-6.92-22.27-15.35-22.27-5.72,0-9.93,3.91-12.64,10.53l-1.2-.3Z" fill="#1d1d1b"/><path d="M988.79,236.48c9.03,14.15,29.5,20.77,59.3,20.77,32.21,0,57.19-11.14,57.19-30.4,0-21.37-22.57-27.39-44.55-27.39-15.65,0-18.66,3.01-22.27,19.87-3.01,14.15-7.52,20.17-16.55,20.17-28.59,0-36.72-36.42-36.72-70.73,0-49.36,15.35-71.94,38.83-71.94,19.87,0,37.62,11.74,52.37,11.74,9.33,0,15.05-4.51,14.75-12.64l1.2-.6c9.63,6.62,15.05,15.95,15.05,28.29,0,16.55-12.04,28.59-27.99,28.59-19.87,0-32.21-11.74-56.29-11.74-21.97,0-34.01,12.34-34.01,29.2,0,21.07,16.55,32.81,39.73,32.81,16.25,0,20.47-4.52,24.38-25.89,1.81-8.43,4.82-12.94,12.04-12.94,24.68,0,44.55,21.07,44.55,64.41,0,53.58-25.28,79.46-74.35,79.46-19.56,0-37.93-3.61-52.67-10.23,10.23-15.65-6.32-41.24,4.82-60.5l1.2-.3Z" fill="#1d1d1b"/><path d="M1207.01,259.96c-3.91,14.75-4.21,29.8-1.51,43.34-4.82,2.41-11.74,4.21-23.18,4.21-25.58,0-41.54-12.34-41.54-31.6,0-24.08,18.06-33.71,22.27-63.51-5.42,1.5-10.53,2.41-16.25,2.41-11.14,0-18.36-9.33-18.36-25.28,0-14.15,3.01-23.18,8.43-33.71l.9.3c2.11,7.52,8.13,10.23,16.25,10.23,3.91,0,8.43-1.5,15.95-4.21-.9-8.73-6.62-13.54-16.55-13.54-3.61,0-8.13.6-12.94,2.11l-.6-.6c-.9-16.25,16.55-18.36,15.65-36.72,19.56,4.82,28.59,13.54,28.59,25.28,0,6.62-3.31,12.94-10.23,21.37l.3.3c4.82-2.41,12.04-4.21,17.46-4.21,12.34,0,21.07,10.84,21.07,28.29,0,13.24-3.31,22.57-10.84,31.91l-.9-.3c-3.01-7.52-7.22-9.93-13.24-9.93s-13.54,2.41-20.47,5.12c-1.5,8.73-3.61,17.76-3.61,31,0,15.65,10.53,21.97,26.19,21.97,5.42,0,11.74-1.2,15.95-4.82l1.2.6Z" fill="#1d1d1b"/><path d="M1299.12,262.07c-19.87,10.23-17.76,45.45-41.24,45.45-13.24,0-21.67-8.43-21.67-23.78,0-25.58,29.2-36.42,29.2-61.4,0-11.74-9.33-16.86-17.46-16.86s-12.64,3.31-15.65,10.53l-1.2-.3c-5.42-21.97,15.05-38.23,14.45-57.79,1.5-1.2,3.91-2.11,6.62-2.11,9.63,0,21.37,13.24,21.67,43.95,0,17.76-8.73,36.12-8.73,50.27,0,9.33,4.51,14.15,15.05,14.15,14.75,0,33.11-9.03,33.11-37.02,0-12.64-6.02-21.67-14.15-21.67-6.32,0-10.53,3.31-13.24,10.53l-1.2-.3c-5.42-21.67,15.35-40.03,14.45-57.79,1.5-1.2,3.61-2.11,6.62-2.11,15.05,0,25.89,11.14,25.89,32.81s-16.25,38.53-16.25,58.39c0,10.84,4.51,17.16,12.64,17.16,3.61,0,6.62-.9,9.63-4.82l1.2.3c-3.61,15.05-4.51,30.7-1.2,44.25-2.71,1.81-7.83,3.61-16.86,3.61-18.36,0-27.99-11.14-27.99-26.49,0-6.02,1.81-11.74,7.52-18.06l-1.2-.9Z" fill="#1d1d1b"/><path d="M1437.58,214.81c-.6-49.36-27.99-73.44-56.59-73.44-8.73,0-17.46,2.41-25.58,6.92l-.9-.6c-.9-27.99,26.19-30.4,24.98-50.87,48.76,0,62.61,32.51,62.61,115.58,0,60.2-18.36,95.11-40.94,95.11s-41.84-29.5-41.84-75.25c0-40.63,12.64-75.85,30.4-75.85,22.27,0,27.39,41.54,46.96,59l.9-.6ZM1401.16,264.48c17.46,0,36.12-9.93,36.12-34.01,0-15.95-15.05-24.98-38.23-24.98-18.06,0-35.52,8.13-35.52,26.79,0,23.48,20.47,32.21,37.62,32.21Z" fill="#1d1d1b"/><path d="M1522.76,303.91c-4.82,2.11-10.23,3.61-21.67,3.61-19.26,0-31.91-10.54-31.91-26.79,0-22.58,25.58-33.11,25.58-55.68,0-11.74-7.52-19.56-17.76-19.56-7.83,0-11.44,4.51-14.15,10.53l-1.2-.3c-3.61-21.07,15.35-37.62,14.75-58.09,2.41-1.2,4.51-1.81,7.83-1.81,13.24,0,23.48,12.34,23.48,33.41,0,24.38-12.64,44.25-12.64,60.2,0,10.53,7.52,14.75,14.45,14.75,4.51,0,9.33-.9,13.24-4.82l1.2.3c-3.61,15.05-3.91,31-1.2,44.25ZM1491.76,106.76c18.96,0,25.89,5.42,25.89,14.45,0,9.63-18.06,17.76-25.89,17.76s-25.58-8.43-25.58-17.76,6.92-14.45,25.58-14.45Z" fill="#1d1d1b"/><path d="M1543.23,231.97c0-50.27,14.15-76.15,41.84-76.15s41.84,25.58,41.84,76.15-13.85,75.55-41.84,75.55-41.84-25.28-41.84-75.55ZM1622.69,231.67c0-18.06-11.14-26.19-37.62-26.19s-37.62,7.83-37.62,26.19c0,23.78,19.56,32.81,37.62,32.81s37.62-9.03,37.62-32.81Z" fill="#1d1d1b"/><rect x="0" y="9.36" width="1818.67" height="75.82" fill="none"/><path d="M537.94,32.48c0-13.44,7.92-19.68,18.24-19.68,6.64,0,11.84,2.8,14.88,8,3.04-5.2,8.24-8,14.88-8,10.32,0,18.24,6.24,18.24,19.68v33.68h-10.24v-33.68c0-7.2-3.84-10.16-8.88-10.16s-8.88,3.04-8.88,10.16v33.68h-10.24v-33.68c0-7.12-3.84-10.16-8.88-10.16s-8.88,2.96-8.88,10.16v33.68h-10.24v-33.68Z" fill="#1d1d1b"/><path d="M612.5,45.36V13.84h10.24v31.52c0,7.76,4,12.4,11.92,12.4s12-4.64,12-12.4V13.84h10v31.52c0,13.36-7.84,21.84-21.92,21.84s-22.24-8.4-22.24-21.84Z" fill="#1d1d1b"/><path d="M666.1,13.84h10.24v42.88h27.36v9.44h-37.6V13.84Z" fill="#1d1d1b"/><path d="M714.5,23.36h-15.6v-9.52h41.44v9.52h-15.6v42.8h-10.24V23.36Z" fill="#1d1d1b"/><path d="M747.94,13.84h10.24v52.32h-10.24V13.84Z" fill="#1d1d1b"/><path d="M768.98,13.84h18.56c18.32,0,27.92,10.48,27.92,26.16s-9.6,26.16-27.92,26.16h-18.56V13.84ZM787.54,56.72c12.08,0,17.52-6.56,17.52-16.72s-5.44-16.64-17.52-16.64h-8.32v33.36h8.32Z" fill="#1d1d1b"/><path d="M823.62,13.84h10.24v52.32h-10.24V13.84Z" fill="#1d1d1b"/><path d="M841.94,51.04h10c.08,4.16,3.2,6.96,9.44,6.96s9.44-2.8,9.44-6.96c0-4.56-4.88-5.44-10.56-6.48-7.92-1.44-17.28-3.12-17.28-15.28,0-9.68,7.36-16.48,18.48-16.48s18.08,6.48,18.48,16.08h-9.68c-.08-4-3.04-6.88-8.72-6.88s-8.64,3.12-8.64,6.96c0,4.56,4.88,5.44,10.56,6.48,7.92,1.44,17.36,3.12,17.36,15.28,0,10.16-7.76,16.48-19.44,16.48s-19.2-6.16-19.44-16.16Z" fill="#1d1d1b"/><path d="M886.25,40c0-15.68,11.52-27.2,27.84-27.2,13.68,0,24,8.08,26.96,20h-10.8c-2.48-6.32-8.4-10.48-16.16-10.48-10.4,0-17.44,7.44-17.44,17.68s7.04,17.76,17.44,17.76c7.76,0,13.68-4.24,16.16-10.56h10.8c-2.96,11.92-13.28,20-26.96,20-16.32,0-27.84-11.52-27.84-27.2Z" fill="#1d1d1b"/><path d="M949.05,13.84h10.24v52.32h-10.24V13.84Z" fill="#1d1d1b"/><path d="M970.09,13.84h21.36c13.6,0,19.68,7.52,19.68,17.76s-6.08,17.76-19.68,17.76h-11.12v16.8h-10.24V13.84ZM991.61,39.92c6.8,0,9.12-3.52,9.12-8.32s-2.32-8.24-9.12-8.24h-11.28v16.56h11.28Z" fill="#1d1d1b"/><path d="M1018.17,13.84h10.24v42.88h27.36v9.44h-37.6V13.84Z" fill="#1d1d1b"/><path d="M1063.29,13.84h10.24v52.32h-10.24V13.84Z" fill="#1d1d1b"/><path d="M1083.13,34.64c0-13.44,7.92-21.84,22.24-21.84s22.24,8.4,22.24,21.84v31.52h-10.24v-31.52c0-7.76-4-12.32-12-12.32s-12,4.56-12,12.32v31.52h-10.24v-31.52Z" fill="#1d1d1b"/><path d="M1135.85,35.52c0-14,8-22.72,22.8-22.72s22.96,8.72,22.96,22.72v30.64h-10.24v-15.68h-25.52v15.68h-10v-30.64ZM1171.37,41.2v-5.68c0-8.4-4.16-13.2-12.8-13.2s-12.72,4.8-12.72,13.2v5.68h25.52Z" fill="#1d1d1b"/><path d="M1191.13,13.84h21.92c13.28,0,19.12,7.28,19.12,17.28,0,8.24-3.92,13.92-10.96,16.24l12.88,18.8h-12.16l-11.12-17.68h-9.44v17.68h-10.24V13.84ZM1213.21,38.96c6.48,0,8.64-3.36,8.64-7.84s-2.16-7.76-8.64-7.76h-11.84v15.6h11.84Z" fill="#1d1d1b"/><path d="M1253.85,44.08l-20-30.24h12.08l12.96,21.12,13.12-21.12h11.84l-19.76,30v22.32h-10.24v-22.08Z" fill="#1d1d1b"/></g></svg>